#!OML:ASF F:\VICON\USERDATA\INSTALL\rory3\rory3.ASF
:FULLY-SPECIFIED
:DEGREES
1223
root 0.388154 21.2286 3.54045 17.7557 0.956323 -3.43734
lowerback -10.7457 -2.26 6.37148
upperback -8.62548 -3.46718 2.19985
thorax -3.28593 -1.99172 -1.52265
lowerneck -6.44879 -12.953 -14.148
upperneck 18.9969 -16.6649 3.28025
head 8.46176 -8.66891 1.57585
rclavicle -5.93869e-015 2.38542e-014
rhumerus -37.7395 26.185 -92.509
rradius 40.4576
rwrist 10.1874
rhand -24.2624 -40.903
rfingers 7.12502
rthumb 2.2239 -70.8712
lclavicle -5.93869e-015 2.38542e-014
lhumerus -52.9132 -14.5835 87.0124
lradius 52.5496
lwrist 6.33482
lhand -37.4432 -44.2283
lfingers 7.12502
lthumb -10.5022 -14.5107
rfemur -25.2934 2.16899 25.1768
rtibia 41.5569
rfoot 22.056 -0.497237
rtoes -15.8491
lfemur -40.758 19.8462 -27.8973
ltibia 42.965
lfoot 19.5594 9.73526
ltoes -5.67038
1224
root 0.392766 21.3299 3.50794 16.959 1.43976 -3.29773
lowerback -9.76098 -2.4596 6.35635
upperback -8.44474 -3.65935 2.14394
thorax -3.64731 -2.09284 -1.53823
lowerneck -6.52421 -13.0825 -14.1006
upperneck 19.3195 -16.8041 3.03235
head 8.57181 -8.75425 1.45527
rclavicle 4.20927e-014 9.14409e-015
rhumerus -37.2771 25.5497 -92.2695
rradius 39.1703
rwrist 10.5918
rhand -24.0963 -40.9815
rfingers 7.12502
rthumb 2.38437 -70.9479
lclavicle 4.20927e-014 9.14409e-015
lhumerus -52.6216 -14.3208 87.0724
lradius 51.1112
lwrist 6.06767
lhand -37.3719 -44.5907
lfingers 7.12502
lthumb -10.4334 -14.8696
rfemur -24.5133 1.88732 25.8873
rtibia 42.8502
rfoot 22.1216 1.31894
rtoes -17.315
lfemur -40.5894 19.6485 -28.5627
ltibia 43.7207
lfoot 19.1264 8.70932
ltoes -4.39229
1225
root 0.395495 21.4176 3.48869 16.219 1.8605 -3.6547
lowerback -9.11272 -2.60349 6.80494
upperback -8.18353 -3.83428 2.2174
thorax -3.76956 -2.19604 -1.69119
lowerneck -6.13916 -13.1082 -13.9601
upperneck 19.1882 -16.8711 2.84454
head 8.43533 -8.79996 1.39997
rclavicle -1.53561e-014 -1.03368e-014
rhumerus -36.6417 25.0289 -92.0596
rradius 37.8463
rwrist 11.0758
rhand -23.6731 -40.5717
rfingers 7.12502
rthumb 2.79307 -70.5331
lclavicle -1.53561e-014 -1.03368e-014
lhumerus -52.2949 -13.9087 86.979
lradius 49.694
lwrist 5.80731
lhand -37.449 -45.2195
lfingers 7.12502
lthumb -10.5078 -15.5021
rfemur -23.6973 1.46724 27.1258
rtibia 43.9465
rfoot 24.52 2.40843
rtoes -7.72783
lfemur -40.4849 19.4011 -28.5159
ltibia 44.4209
lfoot 18.652 7.10256
ltoes -3.89237
1226
root 0.403132 21.4902 3.47404 15.4303 2.29049 -3.94366
lowerback -8.29294 -2.79638 7.21623
upperback -8.07113 -4.0431 2.29626
thorax -4.14981 -2.32423 -1.7976
lowerneck -5.41189 -13.0072 -13.9275
upperneck 18.9833 -16.816 2.74627
head 8.22232 -8.79483 1.4312
rclavicle -2.36057e-015 -3.49861e-014
rhumerus -36.224 24.5201 -91.9008
rradius 36.557
rwrist 11.7141
rhand -23.1163 -40.2052
rfingers 7.12502
rthumb 3.33083 -70.159
lclavicle -2.36057e-015 -3.49861e-014
lhumerus -52.3361 -13.2635 86.8485
lradius 48.4679
lwrist 5.45046
lhand -37.5909 -45.1902
lfingers 7.12502
lthumb -10.6446 -15.4798
rfemur -22.7509 0.74895 28.2168
rtibia 44.8785
rfoot 23.6089 2.53523
rtoes -10.6173
lfemur -40.0654 19.0599 -28.4127
ltibia 44.7376
lfoot 18.0524 5.75538
ltoes -2.57314
1227
root 0.413109 21.5549 3.4648 14.7439 2.57136 -3.78118
lowerback -7.568 -2.95755 7.1781
upperback -8.04792 -4.19124 2.25205
thorax -4.54067 -2.4065 -1.78104
lowerneck -4.88718 -12.907 -13.945
upperneck 19.072 -16.7303 2.60227
head 8.14315 -8.78121 1.43403
rclavicle -3.98563e-014 -1.23246e-014
rhumerus -35.7388 23.9343 -91.6559
rradius 35.1061
rwrist 12.3471
rhand -22.2176 -40.0937
rfingers 7.12502
rthumb 4.19869 -70.032
lclavicle -3.98563e-014 -1.23246e-014
lhumerus -52.5344 -12.6578 86.7882
lradius 47.3213
lwrist 5.10003
lhand -37.872 -45.0742
lfingers 7.12502
lthumb -10.9158 -15.378
rfemur -21.8777 -0.127465 28.6854
rtibia 45.6326
rfoot 23.6789 2.11225
rtoes -8.35655
lfemur -39.3992 18.6097 -28.7188
ltibia 44.793
lfoot 16.9968 5.02097
ltoes -0.82098
1228
root 0.423989 21.6032 3.46327 14.3381 2.61194 -3.26279
lowerback -7.34684 -3.02026 6.76191
upperback -7.9124 -4.24936 2.09372
thorax -4.49745 -2.41495 -1.71156
lowerneck -4.7376 -12.9252 -13.8945
upperneck 19.2316 -16.7633 2.46483
head 8.15745 -8.81035 1.38531
rclavicle -2.04748e-014 2.0276e-014
rhumerus -34.885 23.1095 -91.1952
rradius 33.6986
rwrist 12.9203
rhand -21.4772 -39.7616
rfingers 7.12502
rthumb 4.91358 -69.6846
lclavicle -2.04748e-014 2.0276e-014
lhumerus -52.3805 -12.1845 86.7085
lradius 46.1389
lwrist 4.81755
lhand -38.1497 -45.391
lfingers 7.12502
lthumb -11.1837 -15.7091
rfemur -21.3248 -1.02815 28.6553
rtibia 46.2858
rfoot 23.167 1.85507
rtoes -11.7809
lfemur -39.2848 18.2506 -29.5748
ltibia 44.2235
lfoot 17.0853 2.5865
ltoes -5.73796
1229
root 0.440055 21.6536 3.4547 14.2148 2.68329 -2.84704
lowerback -7.25069 -3.09244 6.51428
upperback -7.89716 -4.33108 1.99923
thorax -4.52617 -2.44661 -1.66992
lowerneck -4.69157 -12.9388 -13.921
upperneck 19.4835 -16.776 2.35804
head 8.22945 -8.83162 1.34809
rclavicle 1.60022e-014 -3.10104e-014
rhumerus -34.1898 22.2346 -90.7737
rradius 32.4635
rwrist 13.2715
rhand -21.6182 -39.1818
rfingers 7.12502
rthumb 4.77742 -69.108
lclavicle 1.60022e-014 -3.10104e-014
lhumerus -52.2612 -11.5337 86.5826
lradius 45.0409
lwrist 4.40855
lhand -38.3611 -46.0497
lfingers 7.12502
lthumb -11.3875 -16.3789
rfemur -21.0142 -1.99348 28.6317
rtibia 46.6956
rfoot 22.5851 1.89673
rtoes -9.37223
lfemur -38.9104 17.6349 -30.1177
ltibia 43.5045
lfoot 16.5893 2.01654
ltoes -5.87091
1230
root 0.435375 21.6935 3.45345 14.2542 2.26158 -2.63373
lowerback -7.11472 -3.06226 6.04
upperback -8.15908 -4.24985 2.06676
thorax -4.82747 -2.39186 -1.31709
lowerneck -4.54777 -12.7661 -14.0268
upperneck 20.0555 -16.5437 2.2125
head 8.37741 -8.75502 1.33721
rclavicle -5.20319e-014 -2.78299e-015
rhumerus -34.0056 21.4505 -90.5272
rradius 31.3524
rwrist 13.7087
rhand -21.7433 -38.9498
rfingers 7.12502
rthumb 4.65668 -68.8786
lclavicle -5.20319e-014 -2.78299e-015
lhumerus -52.6886 -10.7575 86.5364
lradius 44.1896
lwrist 4.22166
lhand -38.6789 -46.2743
lfingers 7.12502
lthumb -11.694 -16.6207
rfemur -20.8679 -2.05042 28.754
rtibia 46.8328
rfoot 20.5493 2.26773
rtoes -13.6299
lfemur -38.6859 17.1148 -30.2126
ltibia 42.556
lfoot 16.5104 2.3874
ltoes -3.98317
